<svg width="40" height="41" viewBox="0 0 40 41" fill="none" xmlns="http://www.w3.org/2000/svg">
<path d="M22.0693 14.0685L20.2054 15.8745L18.3416 14.0685C16.3872 12.1749 13.2521 12.2794 11.4282 14.2991C9.65847 16.2589 9.41482 19.1943 11.0174 21.293C11.2143 21.5509 11.408 21.7979 11.5922 22.024C12.7587 23.4549 15.3037 25.9539 16.5788 27.2949C17.5209 28.2857 18.3677 29.1121 19.0057 29.714C19.6794 30.3496 20.7194 30.3357 21.3944 29.7014C22.5707 28.5961 24.3747 26.8743 25.6453 25.5379C26.9205 24.1969 27.6522 23.4549 28.8186 22.024C29.0029 21.7979 29.1965 21.5509 29.3935 21.293C30.996 19.1943 30.7524 16.2589 28.9826 14.2991C27.1588 12.2794 24.0236 12.1749 22.0693 14.0685Z" stroke="#898989" stroke-width="2.02054" stroke-linecap="round" stroke-linejoin="round"/>
</svg>
