<svg width="41" height="41" viewBox="0 0 41 41" fill="none" xmlns="http://www.w3.org/2000/svg">
<g clip-path="url(#clip0_359_115586)">
<path d="M10.5137 12.6284V12.6284C12.0933 12.6284 13.5702 13.4115 14.4566 14.719L15.2922 15.9517L16.4186 17.6133M29.16 25.9214H24.2351C22.9148 25.9214 21.6469 25.4044 20.703 24.4812L19.7745 23.5729M29.16 25.9214L25.6678 29.4662M29.16 25.9214L25.6678 22.3766" stroke="#898989" stroke-width="2.02054" stroke-linecap="round" stroke-linejoin="round"/>
<path d="M10.5137 27.9508V27.9508C12.0972 27.9508 13.5818 27.1805 14.4935 25.8858L20.6664 17.1199C21.6125 15.7763 23.1531 14.9769 24.7964 14.9769H29.16M29.16 14.9769L25.6677 11.4321M29.16 14.9769L25.6677 18.5217" stroke="#898989" stroke-width="2.02054" stroke-linecap="round" stroke-linejoin="round"/>
</g>
<defs>
<clipPath id="clip0_359_115586">
<rect width="21.8892" height="23.573" fill="white" transform="translate(8.83008 8.41882)"/>
</clipPath>
</defs>
</svg>
